<svg width="85" height="100" viewBox="0 0 85 100" fill="none" xmlns="http://www.w3.org/2000/svg">
<g id="vscode-icons:file-type-pdf2" clip-path="url(#clip0_2_1162)">
<path id="Vector" d="M63.7618 6.91016L78.3673 24.8539V93.0896H23.8066V93.3124H78.5536V25.0797L63.7618 6.91016Z" fill="#909090"/>
<path id="Vector_2" d="M64.7834 6.5H11.5V93.5H84.5V24.7953L64.7834 6.5Z" fill="#F4F4F4"/>
<path id="Vector_3" d="M23.2191 11.3281H6.44531V32.4492H59.2078V11.3281H23.2191Z" fill="#7A7B7C"/>
<path id="Vector_4" d="M59.4892 32.0901H6.78711V10.9536H59.4892V32.0901Z" fill="#DF1024"/>
<path id="Vector_5" d="M24.261 14.5268H20.8301V29.3768H23.5286V24.368L24.1245 24.4083C24.7035 24.3965 25.277 24.2743 25.8228 24.0463C26.3014 23.8523 26.7416 23.5461 27.117 23.146C27.4989 22.7649 27.8 22.284 27.9963 21.7415C28.2596 20.8396 28.3536 19.8812 28.272 18.9323C28.2556 18.2545 28.1547 17.5832 27.9727 16.94C27.807 16.4756 27.5611 16.057 27.2506 15.7108C26.9401 15.3646 26.5719 15.0983 26.1693 14.929C25.8213 14.7805 25.4617 14.6727 25.0957 14.6073C24.8186 14.5569 24.5387 14.53 24.2583 14.5268M23.7622 21.6239H23.5286V17.0451H24.0352C24.2588 17.0261 24.4832 17.0666 24.6917 17.1635C24.9003 17.2604 25.0877 17.4114 25.2401 17.6051C25.5559 18.1032 25.7246 18.7096 25.7205 19.3314C25.7205 20.0925 25.7205 20.7824 25.1377 21.2681C24.7179 21.5402 24.24 21.6659 23.7622 21.6239ZM33.3986 14.4866C33.1072 14.4866 32.8237 14.5114 32.6242 14.5206L31.9995 14.5392H29.952V29.3892H32.3617C33.2826 29.419 34.1995 29.235 35.0602 28.8478C35.753 28.5239 36.3664 28.0019 36.8452 27.3288C37.3108 26.6495 37.6449 25.8587 37.8243 25.0115C38.0306 24.0521 38.1311 23.0653 38.1236 22.0756C38.1745 20.9066 38.0977 19.7348 37.8952 18.5889C37.703 17.7454 37.3431 16.9681 36.8452 16.3212C36.4546 15.7989 35.9764 15.3775 35.4408 15.0837C34.9809 14.8328 34.497 14.648 33.9997 14.533C33.8019 14.4945 33.6016 14.4769 33.4012 14.4804M32.9235 26.6605H32.661V17.1813H32.6951C33.2362 17.1079 33.7838 17.223 34.2701 17.5123C34.6262 17.8474 34.9164 18.2696 35.1206 18.7498C35.341 19.2551 35.468 19.8097 35.4933 20.3771C35.517 21.0577 35.4933 21.6146 35.4933 22.0756C35.504 22.6066 35.475 23.1377 35.4067 23.6627C35.3258 24.2017 35.1762 24.7232 34.9631 25.2095C34.7218 25.6617 34.3959 26.0427 34.0102 26.3233C33.6863 26.5702 33.3028 26.6853 32.9182 26.6512M46.2532 14.5392H39.8745V29.3892H42.573V23.4987H45.9855V20.7391H42.573V17.2988H46.248V14.5392" fill="#464648"/>
<path id="Vector_6" d="M57.6758 63.164C57.6758 63.164 66.0443 61.3759 66.0443 64.745C66.0443 68.114 60.8599 66.7435 57.6758 63.164ZM51.4887 63.4208C50.1591 63.7671 48.8633 64.274 47.622 64.9337L48.672 62.1493C49.722 59.3649 50.8114 55.5689 50.8114 55.5689C52.0643 58.0542 53.5221 60.3879 55.1637 62.536C53.9257 62.7536 52.6989 63.051 51.4887 63.427V63.4208ZM48.1759 43.3115C48.1759 40.3755 48.9818 39.5742 49.6092 39.5742C50.2365 39.5742 50.9427 39.93 50.9663 42.4792C50.7619 45.0426 50.3065 47.5695 49.6092 50.0094C48.654 47.9608 48.1596 45.6582 48.1733 43.3207L48.1759 43.3115ZM35.9723 75.8453C33.405 74.0355 41.3562 68.4636 42.7973 68.2842C42.7894 68.2873 38.6603 77.7387 35.9723 75.8453ZM68.4882 65.144C68.4619 64.8347 68.2257 61.4099 63.0544 61.5553C60.8989 61.5144 58.7445 61.6934 56.6153 62.0905C54.5527 59.6415 52.7766 56.8792 51.3338 53.8766C52.2427 50.7811 52.7928 47.555 52.9692 44.286C52.893 40.5735 52.1397 38.445 49.7247 38.4759C47.3097 38.5069 46.9579 40.9973 47.2755 44.7036C47.5867 47.1943 48.1735 49.626 49.0212 51.9368C49.0212 51.9368 47.9055 56.0299 46.4303 60.1012C44.955 64.1726 43.947 66.3073 43.947 66.3073C41.3817 67.2915 38.9667 68.7538 36.7939 70.6385C34.6309 73.0114 33.7515 74.8337 34.8908 76.6559C35.8725 78.2275 39.3087 78.5833 42.3799 73.8406C44.0118 71.391 45.5026 68.8153 46.8424 66.131C46.8424 66.131 51.5254 64.6181 52.9823 64.2035C54.4392 63.789 56.2005 63.461 56.2005 63.461C56.2005 63.461 60.4767 68.5317 64.6005 68.3523C68.7244 68.1728 68.5249 65.4472 68.4986 65.1502" fill="#DF1024"/>
<path id="Vector_7" d="M63.3789 6.92578V25.0954H78.1655L63.3789 6.92578Z" fill="#909090"/>
<path id="Vector_8" d="M63.582 6.6875V24.8571H78.3687L63.582 6.6875Z" fill="#F4F4F4"/>
<path id="Vector_9" d="M24.0598 14.289H20.6289V29.139H23.3379V24.1333L23.9364 24.1736C24.5154 24.1618 25.089 24.0396 25.6348 23.8116C26.1133 23.6175 26.5535 23.3113 26.9289 22.9113C27.308 22.5292 27.6064 22.0483 27.8004 21.5068C28.0637 20.6049 28.1577 19.6465 28.076 18.6976C28.0596 18.0198 27.9588 17.3485 27.7768 16.7053C27.6111 16.2409 27.3652 15.8223 27.0547 15.4761C26.7442 15.1299 26.376 14.8636 25.9734 14.6943C25.6238 14.5444 25.2624 14.4356 24.8945 14.3695C24.6174 14.3191 24.3376 14.2922 24.0572 14.289M23.561 21.3861H23.3274V16.8073H23.8367C24.0603 16.7883 24.2846 16.8288 24.4932 16.9257C24.7017 17.0226 24.8891 17.1736 25.0415 17.3673C25.3574 17.8655 25.5261 18.4718 25.5219 19.0936C25.5219 19.8547 25.5219 20.5446 24.9392 21.0303C24.5193 21.3025 24.0415 21.425 23.5637 21.383M33.1974 14.2488C32.906 14.2488 32.6225 14.2736 32.423 14.2828L31.8062 14.3014H29.7587V29.1514H32.1684C33.0893 29.1812 34.0062 28.9972 34.8669 28.61C35.5597 28.2862 36.1731 27.7641 36.6519 27.091C37.1175 26.4118 37.4516 25.6209 37.631 24.7738C37.8373 23.8143 37.9378 22.8275 37.9303 21.8378C37.9812 20.6688 37.9044 19.497 37.7019 18.3511C37.5097 17.5077 37.1498 16.7303 36.6519 16.0834C36.2613 15.5611 35.7831 15.1397 35.2475 14.8459C34.7876 14.5951 34.3037 14.4102 33.8064 14.2952C33.6086 14.2567 33.4083 14.2391 33.2079 14.2426M32.7302 26.4227H32.4677V16.9435H32.5018C33.0429 16.8701 33.5905 16.9852 34.0768 17.2745C34.4329 17.6096 34.7231 18.0318 34.9273 18.512C35.1477 19.0173 35.2747 19.5719 35.3 20.1393C35.3237 20.8199 35.3 21.3768 35.3 21.8378C35.3107 22.3688 35.2817 22.8999 35.2134 23.4249C35.1325 23.9639 34.9829 24.4854 34.7698 24.9717C34.5285 25.4239 34.2026 25.8049 33.8169 26.0855C33.493 26.3324 33.1095 26.4476 32.7249 26.4134M46.052 14.3014H39.6733V29.1514H42.3718V23.2609H45.7843V20.5013H42.3718V17.061H46.0468V14.3014" fill="white"/>
</g>
<defs>
<clipPath id="clip0_2_1162">
<rect width="84" height="99" fill="white" transform="translate(0.5 0.5)"/>
</clipPath>
</defs>
</svg>
